<svg width="24" height="24" viewBox="0 0 24 24" fill="none" xmlns="http://www.w3.org/2000/svg">
<g opacity="0.7">
<path d="M20.7002 14.3732C20.8143 13.7753 20.8756 13.1682 20.8834 12.5592C20.8821 10.6643 20.3025 8.81643 19.2243 7.26958C18.1461 5.72273 16.6223 4.5529 14.8625 3.92095C14.7673 3.18286 14.4112 2.50501 13.8603 2.01365C13.3095 1.52228 12.6014 1.25088 11.8681 1.25C11.1348 1.24912 10.4261 1.51882 9.8741 2.00886C9.32209 2.4989 8.96437 3.17589 8.86754 3.91375C6.82903 4.63939 5.11438 6.08286 4.03482 7.98215C2.95526 9.88144 2.58233 12.1107 2.98372 14.2652C2.44688 14.7006 2.08108 15.3165 1.95236 16.0017C1.82364 16.6869 1.94047 17.3962 2.28178 18.0016C2.62308 18.607 3.16636 19.0686 3.81354 19.303C4.46072 19.5375 5.16917 19.5294 5.81098 19.2802L5.76725 19.3294C7.42944 20.8743 9.60182 21.7304 11.8555 21.7289C12.9801 21.7258 14.0938 21.5064 15.1379 21.0822C16.1378 20.6803 17.0625 20.1073 17.8717 19.3882C18.5191 19.6859 19.2526 19.728 19.9289 19.5062C20.6052 19.2845 21.1758 18.8147 21.5293 18.1888C21.8827 17.5629 21.9936 16.8258 21.8403 16.1213C21.687 15.4169 21.2805 14.7957 20.7002 14.3792V14.3732ZM11.8685 2.6936C12.1847 2.69431 12.4935 2.79012 12.756 2.96892C13.0186 3.14772 13.223 3.40149 13.3435 3.69816C13.464 3.99484 13.4951 4.32111 13.433 4.63575C13.3709 4.9504 13.2183 5.2393 12.9945 5.46596C12.7708 5.69262 12.4858 5.84686 12.1757 5.9092C11.8656 5.97155 11.5442 5.93919 11.2522 5.81622C10.9602 5.69326 10.7106 5.4852 10.5351 5.21833C10.3595 4.95147 10.2658 4.63777 10.2658 4.31687C10.2664 3.88592 10.4356 3.47286 10.7361 3.16848C11.0367 2.86409 11.444 2.69328 11.8685 2.6936ZM3.32886 16.5424C3.32979 16.25 3.41606 15.9645 3.57676 15.7218C3.73747 15.4792 3.9654 15.2903 4.23178 15.1791C4.49816 15.0679 4.79103 15.0393 5.07342 15.0969C5.35581 15.1545 5.61504 15.2958 5.81839 15.5028C6.02173 15.7099 6.16006 15.9735 6.21591 16.2603C6.27176 16.5471 6.24263 16.8443 6.13219 17.1144C6.02174 17.3844 5.83495 17.6151 5.59539 17.7775C5.35583 17.9398 5.07426 18.0265 4.78622 18.0265C4.59448 18.0263 4.40465 17.9878 4.2276 17.9131C4.05055 17.8384 3.88974 17.729 3.75438 17.5911C3.61902 17.4533 3.51177 17.2897 3.43875 17.1097C3.36573 16.9298 3.32839 16.737 3.32886 16.5424ZM11.8555 20.276C10.0637 20.2775 8.32932 19.6348 6.95985 18.462C7.32355 18.0388 7.55948 17.5182 7.63943 16.9625C7.71939 16.4068 7.63999 15.8395 7.41073 15.3284C7.18147 14.8173 6.81205 14.384 6.34663 14.0804C5.88121 13.7767 5.33948 13.6156 4.78622 13.6162C4.63302 13.6163 4.48007 13.6288 4.3288 13.6534C4.08707 11.9405 4.41931 10.1949 5.27219 8.69668C6.12507 7.19848 7.44912 6.0346 9.03183 5.39185C9.24705 5.97737 9.63324 6.48224 10.1388 6.83896C10.6443 7.19568 11.2451 7.38724 11.8608 7.38802C12.4764 7.3888 13.0777 7.19877 13.5841 6.84334C14.0905 6.48791 14.478 5.98402 14.6946 5.39905C16.1012 5.9747 17.3062 6.96392 18.155 8.23973C19.0037 9.51555 19.4574 11.0197 19.4579 12.5592C19.4516 12.992 19.4121 13.4236 19.3397 13.8501C19.2404 13.839 19.1406 13.8334 19.0407 13.8333C18.5118 13.8331 17.9933 13.9819 17.5428 14.2631C17.0922 14.5443 16.7274 14.9468 16.4889 15.4259C16.2504 15.9051 16.1475 16.442 16.1917 16.9769C16.2359 17.5119 16.4255 18.0239 16.7394 18.456C15.364 19.6109 13.6405 20.2532 11.8555 20.276ZM19.0442 18.192C18.7603 18.1923 18.4828 18.107 18.2466 17.9471C18.0105 17.7871 17.8264 17.5596 17.7176 17.2934C17.6089 17.0273 17.5803 16.7343 17.6357 16.4517C17.691 16.169 17.8277 15.9094 18.0284 15.7056C18.2292 15.5019 18.485 15.3631 18.7634 15.3069C19.0419 15.2508 19.3305 15.2797 19.5927 15.3901C19.855 15.5005 20.0791 15.6874 20.2366 15.9271C20.3942 16.1668 20.4782 16.4485 20.478 16.7367C20.4776 17.1226 20.3265 17.4926 20.0577 17.7654C19.7889 18.0383 19.4244 18.1917 19.0442 18.192Z" fill="#153055"/>
<path opacity="0.4" d="M15.1469 12.0887L14.4727 12.0069C14.4214 11.8242 14.3505 11.6474 14.2613 11.4796L14.6788 10.9523C14.7262 10.8821 14.7467 10.7974 14.7367 10.7136C14.7267 10.6297 14.6868 10.5521 14.6243 10.4948L14.1895 10.0637C14.1314 10.0016 14.053 9.96205 13.9682 9.95214C13.8834 9.94224 13.7978 9.96263 13.7267 10.0096L13.2068 10.4131C13.0363 10.3167 12.8552 10.2401 12.667 10.185L12.5859 9.53637C12.5694 9.45348 12.5237 9.37911 12.4569 9.32667C12.3901 9.27422 12.3067 9.24714 12.2215 9.25029H11.6059C11.5207 9.24687 11.437 9.27385 11.3702 9.32634C11.3033 9.37883 11.2577 9.45335 11.2415 9.53637L11.1631 10.1692C10.9695 10.2231 10.7827 10.2983 10.6059 10.3933L10.0966 9.99778C10.0256 9.95076 9.94004 9.93037 9.85523 9.94028C9.77042 9.95018 9.69195 9.98974 9.6339 10.0518L9.19909 10.4843C9.13656 10.5416 9.09671 10.6192 9.08671 10.703C9.07672 10.7869 9.09724 10.8715 9.14457 10.9417L9.54348 11.444C9.44639 11.6182 9.36924 11.8026 9.31344 11.9937L8.66986 12.0728C8.58493 12.0881 8.50845 12.1334 8.45465 12.2003C8.40085 12.2672 8.37337 12.3512 8.37733 12.4367V13.0484C8.37409 13.1326 8.40123 13.2153 8.45386 13.2814C8.50649 13.3476 8.58118 13.3931 8.66455 13.4096L9.31477 13.4887C9.37099 13.673 9.44723 13.8507 9.54215 14.0187L9.12861 14.546C9.08128 14.6162 9.06076 14.7009 9.07076 14.7847C9.08075 14.8686 9.1206 14.9462 9.18313 15.0035L9.61928 15.4359C9.6771 15.4979 9.75534 15.5374 9.83992 15.5473C9.92451 15.5572 10.0099 15.5369 10.0807 15.49L10.6126 15.0786C10.7796 15.1676 10.9557 15.2387 11.1378 15.2909L11.2216 15.9646C11.2383 16.0476 11.2842 16.1219 11.3513 16.1744C11.4183 16.2268 11.5019 16.2538 11.5872 16.2506H12.2029C12.2882 16.2538 12.3719 16.2268 12.4389 16.1744C12.5059 16.1219 12.5519 16.0476 12.5686 15.9646L12.6523 15.2856C12.8298 15.2335 13.0014 15.1632 13.1643 15.076L13.7134 15.5018C13.7843 15.5488 13.8696 15.5691 13.9542 15.5592C14.0388 15.5493 14.117 15.5098 14.1749 15.4478L14.611 15.0154C14.6731 14.9577 14.7125 14.8801 14.7223 14.7963C14.732 14.7125 14.7114 14.628 14.6642 14.5579L14.2387 14.0174C14.3281 13.8566 14.4003 13.6869 14.4541 13.5111L15.1442 13.4268C15.2276 13.4102 15.3023 13.3648 15.3549 13.2986C15.4075 13.2324 15.4347 13.1498 15.4314 13.0655V12.4499C15.4348 12.366 15.408 12.2837 15.3559 12.2176C15.3038 12.1514 15.2297 12.1058 15.1469 12.0887ZM11.9064 14.4498C11.5669 14.4498 11.235 14.35 10.9527 14.163C10.6704 13.9759 10.4503 13.7101 10.3204 13.3991C10.1905 13.0882 10.1565 12.7459 10.2227 12.4158C10.2889 12.0856 10.4524 11.7824 10.6925 11.5444C10.9326 11.3063 11.2385 11.1442 11.5715 11.0786C11.9045 11.0129 12.2496 11.0466 12.5633 11.1754C12.877 11.3042 13.1451 11.5224 13.3337 11.8023C13.5223 12.0822 13.623 12.4112 13.623 12.7478C13.623 13.1992 13.4422 13.6321 13.1202 13.9513C12.7983 14.2705 12.3617 14.4498 11.9064 14.4498Z" fill="#153055"/>
</g>
</svg>
