<svg width="27" height="27" viewBox="0 0 27 27" fill="none" xmlns="http://www.w3.org/2000/svg">
<path fill-rule="evenodd" clip-rule="evenodd" d="M0.801819 13.958C0.801819 6.78072 6.62453 0.958008 13.8018 0.958008C20.9791 0.958008 26.8018 6.78072 26.8018 13.958C26.8018 21.1353 20.9791 26.958 13.8018 26.958C6.62453 26.958 0.801819 21.1353 0.801819 13.958ZM13.8018 2.95801C7.7291 2.95801 2.80182 7.88529 2.80182 13.958C2.80182 20.0307 7.7291 24.958 13.8018 24.958C19.8745 24.958 24.8018 20.0307 24.8018 13.958C24.8018 7.88529 19.8745 2.95801 13.8018 2.95801Z" fill="white"/>
<path fill-rule="evenodd" clip-rule="evenodd" d="M9.09471 9.2509C9.48524 8.86038 10.1184 8.86038 10.5089 9.2509L18.5089 17.2509C18.8995 17.6414 18.8995 18.2746 18.5089 18.6651C18.1184 19.0556 17.4852 19.0556 17.0947 18.6651L9.09471 10.6651C8.70419 10.2746 8.70419 9.64143 9.09471 9.2509Z" fill="white"/>
<path fill-rule="evenodd" clip-rule="evenodd" d="M18.5089 9.2509C18.8995 9.64143 18.8995 10.2746 18.5089 10.6651L10.5089 18.6651C10.1184 19.0556 9.48524 19.0556 9.09471 18.6651C8.70419 18.2746 8.70419 17.6414 9.09471 17.2509L17.0947 9.2509C17.4852 8.86038 18.1184 8.86038 18.5089 9.2509Z" fill="white"/>
</svg>
