<svg width="66" height="67" viewBox="0 0 66 67" fill="none" xmlns="http://www.w3.org/2000/svg">
<rect x="0.640625" y="0.720703" width="65" height="66" rx="14" fill="white"/>
<path d="M40.8444 31.3051C38.8039 30.1601 36.6345 29.2877 34.4865 28.3826C33.2407 27.8592 32.0486 27.2485 30.9961 26.3979C28.9234 24.7186 29.3207 21.9923 31.7479 20.9127C32.4352 20.6074 33.1548 20.5092 33.8851 20.4656C36.6989 20.313 39.3731 20.8364 41.9184 22.0796C43.1857 22.7011 43.6046 22.5048 44.0341 21.1635C44.4852 19.7459 44.8611 18.3064 45.28 16.8779C45.5592 15.9183 45.2155 15.2858 44.3241 14.8823C42.6917 14.1517 41.0163 13.6282 39.255 13.3447C36.9567 12.9848 36.9567 12.9739 36.9459 10.6294C36.9352 7.32516 36.9352 7.32516 33.6703 7.32516C33.1978 7.32516 32.7252 7.31425 32.2527 7.32516C30.7276 7.36878 30.4699 7.6414 30.4269 9.20081C30.4054 9.89873 30.4269 10.5966 30.4162 11.3055C30.4054 13.3774 30.3947 13.3447 28.4401 14.0644C23.7146 15.8092 20.7934 19.0807 20.4819 24.3151C20.2027 28.9497 22.5869 32.0794 26.3351 34.3585C28.6441 35.7653 31.2002 36.594 33.6488 37.6954C34.6047 38.1207 35.5175 38.6115 36.3123 39.2876C38.6643 41.2614 38.2347 44.5437 35.4424 45.7869C33.9495 46.4521 32.3708 46.6157 30.7491 46.4085C28.2468 46.0923 25.8518 45.4271 23.5965 44.2384C22.2755 43.5405 21.8888 43.7259 21.4378 45.1762C21.0511 46.4303 20.7075 47.6953 20.3638 48.9603C19.902 50.6614 20.0738 51.0649 21.674 51.861C23.7146 52.8642 25.8948 53.3768 28.1179 53.7366C29.8577 54.0201 29.9114 54.0965 29.9329 55.9285C29.9436 56.7573 29.9436 57.597 29.9544 58.4258C29.9651 59.4726 30.4591 60.0833 31.5224 60.1051C32.7252 60.1269 33.9388 60.1269 35.1417 60.0942C36.1297 60.0724 36.6345 59.5271 36.6345 58.513C36.6345 57.3789 36.6882 56.2339 36.6452 55.0997C36.5915 53.9438 37.0855 53.3549 38.181 53.0496C40.7048 52.3517 42.8528 50.9777 44.5067 48.9275C49.1033 43.257 47.3527 34.9583 40.8444 31.3051Z" fill="#304FFD"/>
</svg>
