<svg width="6" height="9" viewBox="0 0 6 9" fill="none" xmlns="http://www.w3.org/2000/svg">
<path d="M2.70429 0.186906C3.46696 0.186906 4.07929 0.395906 4.54129 0.813906C5.01063 1.22457 5.24529 1.79291 5.24529 2.51891C5.24529 3.23757 5.01429 3.78757 4.55229 4.16891C4.09029 4.54291 3.47796 4.72991 2.71529 4.72991L2.67129 5.57691H1.31829L1.26329 3.70691H1.75829C2.39629 3.70691 2.88763 3.62257 3.23229 3.45391C3.57696 3.28524 3.74929 2.97724 3.74929 2.52991C3.74929 2.20724 3.65396 1.95057 3.46329 1.75991C3.27996 1.56924 3.02696 1.47391 2.70429 1.47391C2.36696 1.47391 2.10296 1.56557 1.91229 1.74891C1.72896 1.93224 1.63729 2.18524 1.63729 2.50791H0.185293C0.17796 2.06057 0.273293 1.66091 0.471293 1.30891C0.669293 0.956906 0.95896 0.681906 1.34029 0.483906C1.72896 0.285906 2.18363 0.186906 2.70429 0.186906ZM1.98929 8.20591C1.71063 8.20591 1.47963 8.12157 1.29629 7.95291C1.12029 7.77691 1.03229 7.56057 1.03229 7.30391C1.03229 7.04724 1.12029 6.83457 1.29629 6.66591C1.47963 6.48991 1.71063 6.40191 1.98929 6.40191C2.26063 6.40191 2.48429 6.48991 2.66029 6.66591C2.83629 6.83457 2.92429 7.04724 2.92429 7.30391C2.92429 7.56057 2.83629 7.77691 2.66029 7.95291C2.48429 8.12157 2.26063 8.20591 1.98929 8.20591Z" fill="#A3AED0"/>
</svg>
