<svg width="27" height="30" viewBox="0 0 27 30" fill="none" xmlns="http://www.w3.org/2000/svg">
<path d="M26.7941 9.799C26.686 8.64919 26.1581 7.57478 25.3056 6.76977C24.4531 5.96475 23.3322 5.48218 22.1454 5.40918C22.1301 5.62993 22.103 5.84976 22.064 6.06776C22.4902 6.27443 22.8667 6.5661 23.1689 6.92369C23.4711 7.28128 23.6922 7.69674 23.8177 8.14295C23.9432 8.58915 23.9703 9.05604 23.8973 9.51312C23.8243 9.9702 23.6528 10.4072 23.3939 10.7955C22.9017 11.6755 21.8953 13.0919 19.9315 14.7124C19.7856 14.8326 19.6346 14.9539 19.4783 15.0762C18.6049 15.7595 17.8605 16.3506 17.222 16.8742C16.0192 17.862 15.2035 18.6099 14.6469 19.2788L14.6515 19.2874C13.9 20.1405 13.4774 21.2208 13.4559 22.3431C13.4345 23.4655 13.8157 24.5602 14.5341 25.4398C14.6435 25.2126 14.8495 24.8866 15.2387 24.4647C15.3163 24.3823 15.4007 24.293 15.4931 24.2012C16.2075 23.4953 18.8275 21.2594 21.0635 19.2817C21.2686 19.1006 21.4697 18.9222 21.6667 18.7466C22.5973 17.9147 23.4143 17.1652 23.9366 16.6387C25.6426 14.917 27.1027 12.5428 26.7941 9.799Z" fill="url(#paint0_linear_1309_6450)"/>
<path d="M22.1423 5.00928C22.1425 4.05437 21.8517 3.12076 21.3064 2.32603C20.7611 1.5313 19.9858 0.910981 19.0782 0.543197C18.1705 0.175413 17.171 0.07661 16.2056 0.259231C15.2402 0.441852 14.3521 0.897731 13.653 1.56946C13.653 1.56946 15.274 0.926828 15.8465 0.815356C16.4191 0.703884 17.0139 0.807628 17.5107 1.10561C18.0075 1.4036 18.3692 1.8736 18.5227 2.4206C18.6762 2.9676 18.6101 3.55079 18.3378 4.05228C18.3212 4.08233 18.3043 4.11197 18.2865 4.14119C18.2061 4.26116 18.1192 4.37685 18.0261 4.48777C17.5505 5.06773 16.3477 6.34001 13.6106 8.40711C13.0235 8.85042 12.3667 9.32953 11.6303 9.84775C9.99386 10.9966 8.45829 12.089 7.08637 13.1756C4.35227 15.3432 2.2681 17.4876 1.33413 20.0137C0.821562 21.2934 0.700993 22.6896 0.98694 24.0343C1.27289 25.379 1.95316 26.6147 2.94581 27.5927C3.93847 28.5707 5.20118 29.2492 6.58185 29.5465C7.96253 29.8437 9.40229 29.7472 10.7277 29.2683C10.7277 29.2683 9.88883 29.4202 8.73741 29.2146C8.15027 29.1098 7.5712 28.8374 7.11461 28.5863C6.65801 28.3353 6.26769 27.9848 5.9744 27.5623C5.68111 27.1399 5.49285 26.6571 5.42446 26.152C5.41004 25.9528 5.40114 25.7589 5.39902 25.5684C5.3668 22.9518 6.5861 21.0406 12.4274 16.8122C12.9511 16.4335 13.5124 16.0356 14.1113 15.6185C14.364 15.4418 14.6239 15.2617 14.891 15.0781C15.8648 14.4128 16.7928 13.6866 17.6692 12.904C18.0765 12.5376 18.4484 12.1776 18.785 11.8239C19.1293 11.4637 19.4388 11.1114 19.7177 10.7685C21.2906 8.82902 21.8668 7.18011 22.0635 6.06958C22.1024 5.85159 22.1296 5.63176 22.1449 5.41101H22.125C22.1364 5.27806 22.1423 5.14346 22.1423 5.00928Z" fill="url(#paint1_linear_1309_6450)"/>
<defs>
<linearGradient id="paint0_linear_1309_6450" x1="15.3435" y1="7.93593" x2="26.8608" y2="8.08454" gradientUnits="userSpaceOnUse">
<stop stop-color="#EEF1FF"/>
<stop offset="1" stop-color="#FFF3EF"/>
</linearGradient>
<linearGradient id="paint1_linear_1309_6450" x1="3.84289" y1="3.89693" x2="22.1847" y2="4.15245" gradientUnits="userSpaceOnUse">
<stop stop-color="#EEF1FF"/>
<stop offset="1" stop-color="#FFF3EF"/>
</linearGradient>
</defs>
</svg>
