<svg width="27" height="31" viewBox="0 0 27 31" fill="none" xmlns="http://www.w3.org/2000/svg">
<path d="M26.4933 10.299C26.3852 9.14919 25.8573 8.07478 25.0048 7.26977C24.1523 6.46475 23.0315 5.98218 21.8446 5.90918C21.8293 6.12993 21.8022 6.34976 21.7632 6.56776C22.1894 6.77443 22.5659 7.0661 22.8681 7.42369C23.1703 7.78128 23.3914 8.19674 23.5169 8.64295C23.6424 9.08915 23.6696 9.55604 23.5965 10.0131C23.5235 10.4702 23.352 10.9072 23.0932 11.2955C22.6009 12.1755 21.5945 13.5919 19.6307 15.2124C19.4849 15.3326 19.3338 15.4539 19.1775 15.5762C18.3041 16.2595 17.5597 16.8506 16.9212 17.3742C15.7184 18.362 14.9027 19.1099 14.3461 19.7788L14.3508 19.7874C13.5992 20.6405 13.1766 21.7208 13.1552 22.8431C13.1337 23.9655 13.5149 25.0602 14.2333 25.9398C14.3427 25.7126 14.5487 25.3866 14.9379 24.9647C15.0155 24.8823 15.0999 24.793 15.1923 24.7012C15.9067 23.9953 18.5267 21.7594 20.7627 19.7817C20.9679 19.6006 21.169 19.4222 21.366 19.2466C22.2965 18.4147 23.1135 17.6652 23.6358 17.1387C25.3418 15.417 26.8019 13.0428 26.4933 10.299Z" fill="url(#paint0_linear_905_1590)"/>
<path d="M21.842 5.50928C21.8422 4.55437 21.5514 3.62076 21.0061 2.82603C20.4608 2.0313 19.6856 1.41098 18.7779 1.0432C17.8702 0.675413 16.8707 0.57661 15.9053 0.759231C14.9399 0.941852 14.0518 1.39773 13.3527 2.06946C13.3527 2.06946 14.9737 1.42683 15.5462 1.31536C16.1188 1.20388 16.7136 1.30763 17.2104 1.60561C17.7072 1.9036 18.0689 2.3736 18.2224 2.9206C18.376 3.4676 18.3098 4.05079 18.0375 4.55228C18.0209 4.58233 18.004 4.61197 17.9862 4.64119C17.9058 4.76116 17.819 4.87685 17.7258 4.98777C17.2502 5.56773 16.0474 6.84001 13.3103 8.90711C12.7232 9.35042 12.0665 9.82953 11.33 10.3477C9.69357 11.4966 8.158 12.589 6.78608 13.6756C4.05198 15.8432 1.96781 17.9876 1.03383 20.5137C0.521269 21.7934 0.4007 23.1896 0.686647 24.5343C0.972595 25.879 1.65286 27.1147 2.64552 28.0927C3.63818 29.0707 4.90088 29.7492 6.28156 30.0465C7.66224 30.3437 9.102 30.2472 10.4274 29.7683C10.4274 29.7683 9.58854 29.9202 8.43712 29.7146C7.84998 29.6098 7.27091 29.3374 6.81432 29.0863C6.35772 28.8353 5.9674 28.4848 5.67411 28.0623C5.38081 27.6399 5.19256 27.1571 5.12417 26.652C5.10975 26.4528 5.10085 26.2589 5.09873 26.0684C5.06651 23.4518 6.28581 21.5406 12.1271 17.3122C12.6508 16.9335 13.2121 16.5356 13.811 16.1185C14.0637 15.9418 14.3236 15.7617 14.5907 15.5781C15.5645 14.9128 16.4925 14.1866 17.3689 13.404C17.7762 13.0376 18.1481 12.6776 18.4847 12.3239C18.829 11.9637 19.1385 11.6114 19.4174 11.2685C20.9903 9.32902 21.5665 7.68011 21.7632 6.56958C21.8022 6.35159 21.8293 6.13176 21.8446 5.91101H21.8247C21.8361 5.77806 21.842 5.64346 21.842 5.50928Z" fill="url(#paint1_linear_905_1590)"/>
<defs>
<linearGradient id="paint0_linear_905_1590" x1="19.8445" y1="5.90918" x2="19.8445" y2="25.9398" gradientUnits="userSpaceOnUse">
<stop stop-color="#304FFD"/>
<stop offset="1" stop-color="#74E6FF"/>
</linearGradient>
<linearGradient id="paint1_linear_905_1590" x1="11.1899" y1="0.669922" x2="11.1899" y2="30.2154" gradientUnits="userSpaceOnUse">
<stop stop-color="#304FFD"/>
<stop offset="1" stop-color="#74E6FF"/>
</linearGradient>
</defs>
</svg>
