<svg width="116" height="41" viewBox="0 0 116 41" fill="none" xmlns="http://www.w3.org/2000/svg">
<path d="M53.7714 17.2615C53.7714 18.2375 53.5474 19.1335 53.0994 19.9495C52.6514 20.7495 51.9634 21.3975 51.0354 21.8935C50.1074 22.3895 48.9554 22.6375 47.5794 22.6375H45.0354V28.6855H40.9314V11.8375H47.5794C48.9234 11.8375 50.0594 12.0695 50.9874 12.5335C51.9154 12.9975 52.6114 13.6375 53.0754 14.4535C53.5394 15.2695 53.7714 16.2055 53.7714 17.2615ZM47.2674 19.3735C48.0514 19.3735 48.6354 19.1895 49.0194 18.8215C49.4034 18.4535 49.5954 17.9335 49.5954 17.2615C49.5954 16.5895 49.4034 16.0695 49.0194 15.7015C48.6354 15.3335 48.0514 15.1495 47.2674 15.1495H45.0354V19.3735H47.2674ZM66.3959 25.7095H60.1079L59.0999 28.6855H54.8039L60.8999 11.8375H65.6519L71.7479 28.6855H67.4039L66.3959 25.7095ZM65.3399 22.5415L63.2519 16.3735L61.1879 22.5415H65.3399ZM89.4192 11.8375L83.4432 28.6855H78.3072L72.3312 11.8375H76.6992L80.8752 24.5575L85.0752 11.8375H89.4192ZM99.1025 28.8535C97.5185 28.8535 96.0625 28.4855 94.7345 27.7495C93.4225 27.0135 92.3745 25.9895 91.5905 24.6775C90.8225 23.3495 90.4385 21.8615 90.4385 20.2135C90.4385 18.5655 90.8225 17.0855 91.5905 15.7735C92.3745 14.4615 93.4225 13.4375 94.7345 12.7015C96.0625 11.9655 97.5185 11.5975 99.1025 11.5975C100.686 11.5975 102.134 11.9655 103.446 12.7015C104.774 13.4375 105.814 14.4615 106.566 15.7735C107.334 17.0855 107.718 18.5655 107.718 20.2135C107.718 21.8615 107.334 23.3495 106.566 24.6775C105.798 25.9895 104.758 27.0135 103.446 27.7495C102.134 28.4855 100.686 28.8535 99.1025 28.8535ZM99.1025 25.1095C100.446 25.1095 101.518 24.6615 102.318 23.7655C103.134 22.8695 103.542 21.6855 103.542 20.2135C103.542 18.7255 103.134 17.5415 102.318 16.6615C101.518 15.7655 100.446 15.3175 99.1025 15.3175C97.7425 15.3175 96.6545 15.7575 95.8385 16.6375C95.0385 17.5175 94.6385 18.7095 94.6385 20.2135C94.6385 21.7015 95.0385 22.8935 95.8385 23.7895C96.6545 24.6695 97.7425 25.1095 99.1025 25.1095Z" fill="#F4F9FD"/>
<path d="M32.4933 15.298C32.3852 14.1482 31.8573 13.0738 31.0048 12.2688C30.1523 11.4638 29.0315 10.9812 27.8446 10.9082C27.8293 11.129 27.8022 11.3488 27.7632 11.5668C28.1894 11.7735 28.5659 12.0651 28.8681 12.4227C29.1703 12.7803 29.3914 13.1958 29.5169 13.642C29.6424 14.0882 29.6696 14.5551 29.5965 15.0121C29.5235 15.4692 29.352 15.9062 29.0932 16.2945C28.6009 17.1746 27.5945 18.5909 25.6307 20.2114C25.4849 20.3316 25.3338 20.4529 25.1775 20.5753C24.3041 21.2585 23.5597 21.8496 22.9212 22.3732C21.7184 23.361 20.9027 24.1089 20.3461 24.7778L20.3508 24.7864C19.5992 25.6396 19.1766 26.7198 19.1552 27.8422C19.1337 28.9645 19.5149 30.0592 20.2333 30.9388C20.3427 30.7116 20.5487 30.3856 20.9379 29.9637C21.0155 29.8814 21.0999 29.792 21.1923 29.7002C21.9067 28.9943 24.5267 26.7585 26.7627 24.7807C26.9679 24.5996 27.169 24.4212 27.366 24.2456C28.2965 23.4137 29.1135 22.6642 29.6358 22.1377C31.3418 20.416 32.8019 18.0418 32.4933 15.298Z" fill="url(#paint0_linear_1813_17507)"/>
<path d="M27.842 10.5093C27.8422 9.55437 27.5514 8.62076 27.0061 7.82603C26.4608 7.0313 25.6856 6.41098 24.7779 6.0432C23.8702 5.67541 22.8707 5.57661 21.9053 5.75923C20.9399 5.94185 20.0518 6.39773 19.3527 7.06946C19.3527 7.06946 20.9737 6.42683 21.5462 6.31536C22.1188 6.20388 22.7136 6.30763 23.2104 6.60561C23.7072 6.9036 24.0689 7.3736 24.2224 7.9206C24.376 8.4676 24.3098 9.05079 24.0375 9.55228C24.0209 9.58233 24.004 9.61197 23.9862 9.64119C23.9058 9.76116 23.819 9.87685 23.7258 9.98777C23.2502 10.5677 22.0474 11.84 19.3103 13.9071C18.7232 14.3504 18.0665 14.8295 17.33 15.3477C15.6936 16.4966 14.158 17.589 12.7861 18.6756C10.052 20.8432 7.96781 22.9876 7.03383 25.5137C6.52127 26.7934 6.4007 28.1896 6.68665 29.5343C6.97259 30.879 7.65286 32.1147 8.64552 33.0927C9.63818 34.0707 10.9009 34.7492 12.2816 35.0465C13.6622 35.3437 15.102 35.2472 16.4274 34.7683C16.4274 34.7683 15.5885 34.9202 14.4371 34.7146C13.85 34.6098 13.2709 34.3374 12.8143 34.0863C12.3577 33.8353 11.9674 33.4848 11.6741 33.0623C11.3808 32.6399 11.1926 32.1571 11.1242 31.652C11.1098 31.4528 11.1008 31.2589 11.0987 31.0684C11.0665 28.4518 12.2858 26.5406 18.1271 22.3122C18.6508 21.9335 19.2121 21.5356 19.811 21.1185C20.0637 20.9418 20.3236 20.7617 20.5907 20.5781C21.5645 19.9128 22.4925 19.1866 23.3689 18.404C23.7762 18.0376 24.1481 17.6776 24.4847 17.3239C24.829 16.9637 25.1385 16.6114 25.4174 16.2685C26.9903 14.329 27.5665 12.6801 27.7632 11.5696C27.8022 11.3516 27.8293 11.1318 27.8446 10.911H27.8247C27.8361 10.7781 27.842 10.6435 27.842 10.5093Z" fill="url(#paint1_linear_1813_17507)"/>
<defs>
<linearGradient id="paint0_linear_1813_17507" x1="21.0427" y1="13.435" x2="32.5601" y2="13.5836" gradientUnits="userSpaceOnUse">
<stop stop-color="#EEF1FF"/>
<stop offset="1" stop-color="#FFF3EF"/>
</linearGradient>
<linearGradient id="paint1_linear_1813_17507" x1="9.5426" y1="9.39693" x2="27.8844" y2="9.65245" gradientUnits="userSpaceOnUse">
<stop stop-color="#EEF1FF"/>
<stop offset="1" stop-color="#FFF3EF"/>
</linearGradient>
</defs>
</svg>
