<svg width="33" height="33" viewBox="0 0 33 33" fill="none" xmlns="http://www.w3.org/2000/svg">
<path d="M5.85413 8.78451C5.85413 8.43088 5.9946 8.09174 6.24465 7.8417C6.4947 7.59165 6.83384 7.45117 7.18746 7.45117H25.8541C26.2077 7.45117 26.5469 7.59165 26.7969 7.8417C27.047 8.09174 27.1875 8.43088 27.1875 8.78451C27.1875 9.13813 27.047 9.47727 26.7969 9.72731C26.5469 9.97736 26.2077 10.1178 25.8541 10.1178H7.18746C6.83384 10.1178 6.4947 9.97736 6.24465 9.72731C5.9946 9.47727 5.85413 9.13813 5.85413 8.78451Z" fill="#3F434A"/>
<path d="M5.85413 24.7845C5.85413 24.4309 5.9946 24.0917 6.24465 23.8417C6.4947 23.5916 6.83384 23.4512 7.18746 23.4512H25.8541C26.2077 23.4512 26.5469 23.5916 26.7969 23.8417C27.047 24.0917 27.1875 24.4309 27.1875 24.7845C27.1875 25.1381 27.047 25.4773 26.7969 25.7273C26.5469 25.9774 26.2077 26.1178 25.8541 26.1178H7.18746C6.83384 26.1178 6.4947 25.9774 6.24465 25.7273C5.9946 25.4773 5.85413 25.1381 5.85413 24.7845Z" fill="#3F434A"/>
<path d="M15.1875 15.4512C14.8338 15.4512 14.4947 15.5916 14.2447 15.8417C13.9946 16.0917 13.8541 16.4309 13.8541 16.7845C13.8541 17.1381 13.9946 17.4773 14.2447 17.7273C14.4947 17.9774 14.8338 18.1178 15.1875 18.1178H25.8541C26.2077 18.1178 26.5469 17.9774 26.7969 17.7273C27.047 17.4773 27.1875 17.1381 27.1875 16.7845C27.1875 16.4309 27.047 16.0917 26.7969 15.8417C26.5469 15.5916 26.2077 15.4512 25.8541 15.4512H15.1875Z" fill="#3F434A"/>
</svg>
