<svg width="33" height="33" viewBox="0 0 33 33" fill="none" xmlns="http://www.w3.org/2000/svg">
<path d="M5.85024 8.71517C5.85024 8.36155 5.99072 8.02241 6.24077 7.77236C6.49082 7.52231 6.82995 7.38184 7.18358 7.38184H25.8502C26.2039 7.38184 26.543 7.52231 26.7931 7.77236C27.0431 8.02241 27.1836 8.36155 27.1836 8.71517C27.1836 9.06879 27.0431 9.40793 26.7931 9.65798C26.543 9.90803 26.2039 10.0485 25.8502 10.0485H7.18358C6.82995 10.0485 6.49082 9.90803 6.24077 9.65798C5.99072 9.40793 5.85024 9.06879 5.85024 8.71517Z" fill="#F4F9FD"/>
<path d="M5.85024 24.7152C5.85024 24.3615 5.99072 24.0224 6.24077 23.7724C6.49082 23.5223 6.82995 23.3818 7.18358 23.3818H25.8502C26.2039 23.3818 26.543 23.5223 26.7931 23.7724C27.0431 24.0224 27.1836 24.3615 27.1836 24.7152C27.1836 25.0688 27.0431 25.4079 26.7931 25.658C26.543 25.908 26.2039 26.0485 25.8502 26.0485H7.18358C6.82995 26.0485 6.49082 25.908 6.24077 25.658C5.99072 25.4079 5.85024 25.0688 5.85024 24.7152Z" fill="#F4F9FD"/>
<path d="M15.1836 15.3818C14.83 15.3818 14.4908 15.5223 14.2408 15.7724C13.9907 16.0224 13.8502 16.3615 13.8502 16.7152C13.8502 17.0688 13.9907 17.4079 14.2408 17.658C14.4908 17.908 14.83 18.0485 15.1836 18.0485H25.8502C26.2039 18.0485 26.543 17.908 26.7931 17.658C27.0431 17.4079 27.1836 17.0688 27.1836 16.7152C27.1836 16.3615 27.0431 16.0224 26.7931 15.7724C26.543 15.5223 26.2039 15.3818 25.8502 15.3818H15.1836Z" fill="#F4F9FD"/>
</svg>
