<svg width="25" height="24" viewBox="0 0 25 24" fill="none" xmlns="http://www.w3.org/2000/svg">
<circle cx="12.0996" cy="12" r="12" fill="url(#paint0_linear_484_14956)"/>
<path d="M11.4686 12.5455L12.4281 6.26893C12.1109 6.21896 11.7903 6.1923 11.4692 6.18916C7.9577 6.18916 5.1123 9.03514 5.1123 12.5455C5.1123 16.0564 7.95828 18.9017 11.4686 18.9017C14.9789 18.9017 17.8249 16.0558 17.8249 12.5455C17.8249 12.3964 17.8132 12.2503 17.8028 12.103L11.468 12.5455H11.4686ZM13.7125 5.09863L12.753 11.3752L19.0866 10.9327C18.9859 9.49469 18.399 8.13376 17.4223 7.07354C16.4457 6.01331 15.1374 5.31686 13.7125 5.09863Z" fill="#304FFD"/>
<defs>
<linearGradient id="paint0_linear_484_14956" x1="12.0996" y1="0" x2="12.0996" y2="24" gradientUnits="userSpaceOnUse">
<stop stop-color="#304FFD" stop-opacity="0.2"/>
<stop offset="1" stop-color="#A974FF" stop-opacity="0.2"/>
</linearGradient>
</defs>
</svg>
