<svg width="30" height="30" viewBox="0 0 30 30" fill="none" xmlns="http://www.w3.org/2000/svg">
<path d="M15 30C23.2843 30 30 23.2843 30 15C30 6.71573 23.2843 0 15 0C6.71573 0 0 6.71573 0 15C0 23.2843 6.71573 30 15 30Z" fill="white"/>
<path d="M13.031 22.8051C13.8048 25.6638 16.5698 27.8201 17.9523 27.7501C17.9998 27.7501 23.2498 26.7663 26.1085 21.9613C28.336 18.2351 27.586 14.6251 24.5385 14.5313C23.4835 14.6251 11.5548 17.3676 13.031 22.8051ZM24.281 4.50006C21.8733 2.43449 18.8033 1.30322 15.631 1.31256C13.7098 1.31256 11.881 1.73506 10.2173 2.46131C9.92252 2.57285 9.63982 2.71398 9.37353 2.88256C9.18603 2.97631 8.99853 3.09381 8.81103 3.18756L8.85728 3.21131C8.31978 3.58631 7.82603 4.03131 7.45103 4.54756C3.63103 9.58506 16.451 13.2651 23.3185 13.2888C26.4823 15.5388 27.3735 6.89131 24.2798 4.50006H24.281Z" fill="#0E3CA5"/>
<path d="M10.9925 4.59406C9.23375 7.24281 3.35 9.11781 2.39 8.81281C2.4375 8.74281 2.46125 8.64906 2.5075 8.57781C2.83625 7.92156 3.23375 7.31281 3.65625 6.72656C4.07875 6.14031 4.5475 5.60156 5.0625 5.08531C5.57875 4.57031 6.1175 4.10156 6.70375 3.67906C7.05375 3.42156 7.42875 3.16406 7.82875 2.92906C8.42444 2.599 9.09278 2.42204 9.77375 2.41406C12.375 2.48406 11.0162 4.57031 10.9925 4.59406ZM9.53875 23.3203C9.65625 24.1641 9.53875 27.4453 9.375 27.7266C9.235 27.7266 8.93 27.7503 8.03875 27.2578C7.57 27.0003 7.125 26.6953 6.7025 26.3903C6.1175 25.9691 5.5775 25.5003 5.0625 24.9841C4.55056 24.476 4.08029 23.9275 3.65625 23.3441C3.23324 22.7523 2.8495 22.1335 2.5075 21.4916C2.15895 20.8501 1.87625 20.175 1.66375 19.4766C1.45375 18.7728 1.2425 18.0466 1.125 17.3203C1.00326 16.5605 0.940577 15.7923 0.9375 15.0228C0.937829 13.5174 1.18312 12.022 1.66375 10.5953L1.805 10.1728C2.8125 11.5328 3.985 12.7516 4.9925 14.1103C5.9525 15.3991 7.2425 17.5328 7.52375 17.9778C9.16375 20.7666 9.42125 22.5016 9.53875 23.3216V23.3203ZM29.0625 15.0241C29.0625 16.8516 28.7113 18.5866 28.0775 20.1803C26.415 21.9616 15.2575 17.5778 15.14 17.5303C13.6175 16.8753 8.9775 14.8366 8.555 11.6491C7.945 7.03156 17.2975 3.82031 21.3988 3.70281C21.89 3.70281 23.39 3.72656 24.2575 4.43031C27.2113 7.03031 29.0625 10.8053 29.0625 15.0228V15.0241ZM21.515 27.4928C20.2975 28.0553 18.9613 27.6553 19.3125 26.4616C19.9688 24.1866 25.8288 21.8441 27.1175 21.7266C27.2812 21.7028 27.3513 21.8203 27.2812 21.9378C25.8988 24.3041 23.9062 26.2503 21.515 27.4928Z" fill="#5493F7"/>
</svg>
