<svg width="16" height="16" viewBox="0 0 16 16" fill="none" xmlns="http://www.w3.org/2000/svg">
<path d="M11.2446 9.46609C11.2446 9.85502 11.5595 10.1708 11.9484 10.1708C12.3374 10.1708 12.6531 9.8559 12.6531 9.46697V9.46609C12.6531 9.07715 12.3382 8.76142 11.9493 8.76142C11.5604 8.76142 11.2446 9.07627 11.2446 9.4652V9.46609Z" fill="#3F434A"/>
<path d="M11.4422 11.0183C10.7754 11.0183 10.2295 10.4724 10.2295 9.80563V9.03041C10.2295 8.36367 10.7754 7.81776 11.4422 7.81776H15.8466V5.31131C15.8466 4.64457 15.3006 4.09865 14.6339 4.09865H1.36524C0.698503 4.09865 0.152588 4.64457 0.152588 5.31131V14.3996C0.152588 15.0664 0.698503 15.6123 1.36524 15.6123H14.6339C15.3006 15.6123 15.8466 15.0664 15.8466 14.3996V11.0183H11.4422ZM13.6126 3.32873L12.3329 1.01013C12.011 0.42629 11.2702 0.212862 10.6864 0.534767L5.63026 3.32873H13.6126Z" fill="#3F434A"/>
</svg>
