<svg width="24" height="24" viewBox="0 0 24 24" fill="none" xmlns="http://www.w3.org/2000/svg">
<path d="M16.8662 14.2015C16.8662 14.7849 17.3385 15.2585 17.9219 15.2585C18.5053 15.2585 18.9789 14.7863 18.9789 14.2029V14.2015C18.9789 13.6181 18.5066 13.1445 17.9232 13.1445C17.3398 13.1445 16.8662 13.6168 16.8662 14.2002C16.8662 14.2002 16.8662 14.2015 16.8662 14.2015Z" fill="white"/>
<path d="M17.1629 16.5304C16.1628 16.5304 15.3439 15.7115 15.3439 14.7114V13.5486C15.3439 12.5484 16.1628 11.7296 17.1629 11.7296H23.7695V7.96989C23.7695 6.96978 22.9506 6.15091 21.9505 6.15091H2.0475C1.04739 6.15091 0.228516 6.96978 0.228516 7.96989V21.6024C0.228516 22.6025 1.04739 23.4213 2.0475 23.4213H21.9505C22.9506 23.4213 23.7695 22.6025 23.7695 21.6024V16.5304H17.1629ZM20.4186 4.99602L18.499 1.51812C18.0162 0.642364 16.905 0.322223 16.0292 0.80508L8.44503 4.99602H20.4186Z" fill="white"/>
</svg>
