<svg width="24" height="23" viewBox="0 0 24 23" fill="none" xmlns="http://www.w3.org/2000/svg">
<path opacity="0.4" d="M15.301 3.33301H18.1226C19.2912 3.33301 20.2381 4.28788 20.2381 5.46631V8.31178C20.2381 9.4902 19.2912 10.4451 18.1226 10.4451H15.301C14.1324 10.4451 13.1855 9.4902 13.1855 8.31178V5.46631C13.1855 4.28788 14.1324 3.33301 15.301 3.33301" fill="url(#paint0_linear_905_5449)"/>
<path fill-rule="evenodd" clip-rule="evenodd" d="M5.68673 3.33301H8.50836C9.67692 3.33301 10.6238 4.28788 10.6238 5.46631V8.31178C10.6238 9.4902 9.67692 10.4451 8.50836 10.4451H5.68673C4.51817 10.4451 3.57129 9.4902 3.57129 8.31178V5.46631C3.57129 4.28788 4.51817 3.33301 5.68673 3.33301ZM5.68673 12.8876H8.50836C9.67692 12.8876 10.6238 13.8425 10.6238 15.0209V17.8664C10.6238 19.044 9.67692 19.9997 8.50836 19.9997H5.68673C4.51817 19.9997 3.57129 19.044 3.57129 17.8664V15.0209C3.57129 13.8425 4.51817 12.8876 5.68673 12.8876ZM18.1225 12.8876H15.3009C14.1323 12.8876 13.1854 13.8425 13.1854 15.0209V17.8664C13.1854 19.044 14.1323 19.9997 15.3009 19.9997H18.1225C19.2911 19.9997 20.2379 19.044 20.2379 17.8664V15.0209C20.2379 13.8425 19.2911 12.8876 18.1225 12.8876Z" fill="url(#paint1_linear_905_5449)"/>
<defs>
<linearGradient id="paint0_linear_905_5449" x1="16.7118" y1="3.33301" x2="16.7118" y2="10.4451" gradientUnits="userSpaceOnUse">
<stop stop-color="#304FFD"/>
<stop offset="1" stop-color="#A974FF" stop-opacity="0.81"/>
</linearGradient>
<linearGradient id="paint1_linear_905_5449" x1="11.9046" y1="3.33301" x2="11.9046" y2="19.9997" gradientUnits="userSpaceOnUse">
<stop stop-color="#304FFD"/>
<stop offset="1" stop-color="#A974FF" stop-opacity="0.81"/>
</linearGradient>
</defs>
</svg>
