<svg width="6" height="9" viewBox="0 0 6 9" fill="none" xmlns="http://www.w3.org/2000/svg">
<path d="M2.85859 0.0804603C3.62126 0.0804603 4.23359 0.28946 4.69559 0.707461C5.16492 1.11813 5.39959 1.68646 5.39959 2.41246C5.39959 3.13113 5.16859 3.68113 4.70659 4.06246C4.24459 4.43646 3.63226 4.62346 2.86959 4.62346L2.82559 5.47046H1.47259L1.41759 3.60046H1.91259C2.55059 3.60046 3.04192 3.51613 3.38659 3.34746C3.73126 3.17879 3.90359 2.87079 3.90359 2.42346C3.90359 2.10079 3.80826 1.84413 3.61759 1.65346C3.43426 1.46279 3.18126 1.36746 2.85859 1.36746C2.52126 1.36746 2.25726 1.45913 2.06659 1.64246C1.88326 1.82579 1.79159 2.07879 1.79159 2.40146H0.33959C0.332257 1.95413 0.42759 1.55446 0.62559 1.20246C0.82359 0.850461 1.11326 0.57546 1.49459 0.37746C1.88326 0.17946 2.33792 0.0804603 2.85859 0.0804603ZM2.14359 8.09946C1.86492 8.09946 1.63392 8.01513 1.45059 7.84646C1.27459 7.67046 1.18659 7.45413 1.18659 7.19746C1.18659 6.94079 1.27459 6.72813 1.45059 6.55946C1.63392 6.38346 1.86492 6.29546 2.14359 6.29546C2.41492 6.29546 2.63859 6.38346 2.81459 6.55946C2.99059 6.72813 3.07859 6.94079 3.07859 7.19746C3.07859 7.45413 2.99059 7.67046 2.81459 7.84646C2.63859 8.01513 2.41492 8.09946 2.14359 8.09946Z" fill="white"/>
</svg>
