<svg width="11" height="11" viewBox="0 0 11 11" fill="none" xmlns="http://www.w3.org/2000/svg">
<path fill-rule="evenodd" clip-rule="evenodd" d="M7.95186 0.225696C7.18203 0.219035 6.44037 0.513723 5.88662 1.04629L5.03839 1.88594C4.84849 2.07394 4.84759 2.37964 5.03639 2.56874C5.22519 2.75783 5.53218 2.75872 5.72208 2.57073L6.56268 1.73856C6.93328 1.38333 7.42896 1.18683 7.94343 1.19128C8.459 1.19574 8.95219 1.40166 9.31677 1.7647C9.68135 2.12773 9.88815 2.61883 9.89263 3.13222C9.89709 3.64429 9.69993 4.13767 9.34348 4.50665L7.87584 5.96809C7.67649 6.16666 7.43659 6.32022 7.17241 6.41835C6.90823 6.51648 6.62594 6.55688 6.34469 6.53683C6.06345 6.51677 5.78982 6.43672 5.54238 6.3021C5.29494 6.16748 5.07946 5.98145 4.91057 5.75662C4.75017 5.5431 4.44632 5.49948 4.23189 5.65919C4.01746 5.81891 3.97365 6.12148 4.13405 6.335C4.38623 6.67071 4.70797 6.94849 5.07744 7.1495C5.44691 7.3505 5.85548 7.47003 6.27542 7.49998C6.69536 7.52993 7.11686 7.46959 7.51133 7.32307C7.90577 7.17655 8.26402 6.94722 8.56166 6.65076L10.0324 5.18637L10.0382 5.18033C10.5731 4.62892 10.869 3.8904 10.8623 3.12383C10.8556 2.35726 10.5468 1.62397 10.0025 1.0819C9.45809 0.539835 8.72169 0.232358 7.95186 0.225696ZM5.1495 3.25112C4.72956 3.22117 4.30806 3.28151 3.91359 3.42803C3.51915 3.57455 3.16091 3.80388 2.86327 4.10034L1.39255 5.56474L1.38669 5.57077C0.851862 6.12218 0.555921 6.8607 0.562611 7.62727C0.569301 8.39384 0.878085 9.12713 1.42246 9.6692C1.96683 10.2113 2.70324 10.5187 3.47307 10.5254C4.2429 10.5321 4.98461 10.2374 5.53836 9.70486L6.38263 8.86416C6.57198 8.67561 6.57198 8.36992 6.38263 8.18137C6.19328 7.99282 5.88629 7.99282 5.69693 8.18137L4.86177 9.013C4.49122 9.36794 3.99574 9.56427 3.48149 9.55982C2.96592 9.55536 2.47273 9.34944 2.10816 8.9864C1.74358 8.62337 1.53678 8.13227 1.5323 7.61888C1.52783 7.10681 1.725 6.61343 2.08144 6.24445L3.54909 4.78302C3.74843 4.58444 3.98833 4.43088 4.25251 4.33275C4.5167 4.23462 4.79899 4.19422 5.08023 4.21427C5.36148 4.23433 5.6351 4.31438 5.88254 4.449C6.12999 4.58362 6.34546 4.76965 6.51435 4.99448C6.67475 5.20801 6.9786 5.25162 7.19303 5.09191C7.40746 4.93219 7.45127 4.62962 7.29087 4.4161C7.03869 4.08039 6.71695 3.80261 6.34748 3.60161C5.97801 3.4006 5.56945 3.28107 5.1495 3.25112Z" fill="#304FFD"/>
</svg>
