<svg width="208" height="231" viewBox="0 0 208 231" fill="none" xmlns="http://www.w3.org/2000/svg">
<path opacity="0.15" d="M206.686 107.235C205.485 94.4313 199.616 82.4674 190.141 73.5032C180.665 64.5391 168.206 59.1654 155.014 58.3525C154.844 60.8107 154.542 63.2586 154.109 65.686C158.847 67.9875 163.032 71.2353 166.391 75.2172C169.75 79.1991 172.207 83.8255 173.602 88.7941C174.997 93.7627 175.299 98.9617 174.488 104.052C173.676 109.141 171.769 114.007 168.892 118.331C163.421 128.131 152.234 143.902 130.406 161.947C128.785 163.286 127.105 164.636 125.368 165.999C115.661 173.608 107.385 180.189 100.289 186.019C86.9193 197.02 77.8526 205.348 71.6652 212.796L71.717 212.892C63.3636 222.392 58.6656 234.421 58.4275 246.919C58.1894 259.417 62.4259 271.607 70.4117 281.401C71.6275 278.871 73.9177 275.241 78.2437 270.543C79.1061 269.626 80.0439 268.631 81.0712 267.609C89.0117 259.749 118.135 234.851 142.988 212.828C145.269 210.811 147.504 208.825 149.694 206.87C160.038 197.606 169.118 189.26 174.924 183.398C193.887 164.225 210.117 137.788 206.686 107.235Z" fill="#F4F9FD"/>
<path opacity="0.15" d="M154.981 53.9018C154.983 43.2685 151.75 32.8724 145.689 24.0228C139.628 15.1731 131.011 8.26565 120.921 4.17023C110.832 0.0748166 99.7228 -1.02539 88.9921 1.00816C78.2613 3.04172 68.3891 8.1181 60.6189 15.598C63.5101 15.9545 66.3794 16.4625 69.2143 17.1197C72.994 11.9873 78.6362 8.44211 85.0004 7.20083C91.3646 5.95954 97.9759 7.11477 103.498 10.433C109.02 13.7512 113.041 18.9848 114.747 25.0758C116.454 31.1669 115.719 37.661 112.691 43.2453C112.508 43.5799 112.319 43.9099 112.121 44.2353C111.228 45.5712 110.263 46.8595 109.228 48.0946C103.94 54.5526 90.5711 68.72 60.1476 91.738C53.6209 96.6743 46.3213 102.009 38.1358 107.78C19.9458 120.572 2.87731 132.737 -12.3721 144.837C-42.7627 168.973 -65.929 192.853 -76.3105 220.982C-82.0079 235.231 -83.348 250.779 -80.1696 265.753C-76.9912 280.726 -69.4298 294.487 -58.396 305.377C-47.3623 316.267 -33.3268 323.822 -17.98 327.133C-2.63326 330.443 13.3703 329.368 28.103 324.036C25.7951 322.199 23.5926 320.24 21.5056 318.169C16.1554 320.428 10.339 321.447 4.51466 321.148C-1.30973 320.848 -6.983 319.237 -12.0582 316.442C-17.1335 313.646 -21.472 309.743 -24.7321 305.039C-27.9922 300.335 -30.0847 294.959 -30.8449 289.334C-31.0051 287.116 -31.1041 284.957 -31.1277 282.835C-31.4858 253.698 -17.9328 232.417 46.9952 185.332C52.8166 181.115 59.0559 176.684 65.713 172.04C68.5216 170.072 71.4103 168.066 74.3792 166.022C85.2032 158.614 95.5186 150.527 105.26 141.812C109.787 137.733 113.921 133.724 117.663 129.785C121.489 125.775 124.93 121.851 128.03 118.033C145.513 96.436 151.918 78.0748 154.104 65.7087C154.537 63.2812 154.839 60.8334 155.009 58.3752H154.788C154.915 56.8947 154.981 55.396 154.981 53.9018Z" fill="#F4F9FD"/>
</svg>
