<svg width="24" height="24" viewBox="0 0 24 24" fill="none" xmlns="http://www.w3.org/2000/svg">
<g opacity="0.7" clip-path="url(#clip0_905_5424)">
<path opacity="0.4" d="M11.9055 15.9709C11.1251 15.9709 10.3623 15.738 9.71341 15.3018C9.06451 14.8656 8.55868 14.2456 8.25984 13.5201C7.961 12.7946 7.88258 11.9963 8.03448 11.226C8.18638 10.4556 8.56179 9.74794 9.11326 9.19229C9.66472 8.63665 10.3675 8.25801 11.1327 8.10423C11.898 7.95045 12.6913 8.02844 13.4125 8.32834C14.1338 8.62824 14.7504 9.13658 15.1846 9.78912C15.6189 10.4417 15.8511 11.2091 15.852 11.9944C15.852 13.0482 15.4364 14.0589 14.6964 14.8045C13.9564 15.5501 12.9526 15.9696 11.9055 15.9709ZM11.9055 9.42667C11.3998 9.42667 10.9054 9.57766 10.4849 9.86053C10.0645 10.1434 9.73687 10.5454 9.54355 11.0158C9.35022 11.4861 9.29987 12.0035 9.39887 12.5027C9.49788 13.0018 9.74178 13.4602 10.0997 13.8197C10.4577 14.1793 10.9135 14.4239 11.4097 14.5227C11.9058 14.6214 12.4199 14.5698 12.8869 14.3744C13.3539 14.179 13.7527 13.8485 14.0331 13.4249C14.3134 13.0012 14.4625 12.5034 14.4616 11.9944C14.4591 11.3136 14.1888 10.6614 13.7098 10.1807C13.2308 9.69988 12.582 9.42962 11.9055 9.429V9.42667Z" fill="#153055"/>
<path d="M6.27904 18.9758C6.10757 18.9758 5.94229 18.9113 5.81557 18.7951C4.53142 17.6285 3.60446 16.1176 3.14342 14.4396C2.68238 12.7616 2.70639 10.9861 3.21262 9.32128C3.71885 7.6565 4.68632 6.17153 6.00152 5.04057C7.31673 3.90961 8.92513 3.17956 10.638 2.93606L9.65316 1.94604C9.58857 1.88103 9.53733 1.80386 9.50237 1.71893C9.46741 1.63399 9.44942 1.54296 9.44942 1.45103C9.44942 1.3591 9.46741 1.26806 9.50237 1.18313C9.53733 1.0982 9.58857 1.02102 9.65316 0.956017C9.71775 0.891011 9.79443 0.839446 9.87883 0.804265C9.96322 0.769084 10.0537 0.750977 10.145 0.750977C10.2364 0.750977 10.3268 0.769084 10.4112 0.804265C10.4956 0.839446 10.5723 0.891011 10.6369 0.956017L12.7225 3.05501C12.8215 3.15451 12.8884 3.28175 12.9143 3.42009C12.9403 3.55843 12.9242 3.70145 12.8681 3.83043C12.8121 3.95942 12.7186 4.06838 12.6 4.14307C12.4814 4.21777 12.3432 4.25472 12.2034 4.2491C12.1038 4.2491 12.0041 4.24327 11.9045 4.24327C10.3466 4.2429 8.82511 4.7179 7.54091 5.6056C6.25671 6.49329 5.2701 7.75195 4.71126 9.21552C4.15242 10.6791 4.04761 12.2788 4.41067 13.8035C4.77372 15.3283 5.58757 16.7064 6.74484 17.7561C6.84927 17.8507 6.92277 17.9749 6.95568 18.1123C6.98858 18.2498 6.97933 18.394 6.92915 18.5261C6.87897 18.6581 6.79022 18.7718 6.67458 18.8521C6.55894 18.9324 6.42185 18.9755 6.28136 18.9758H6.27904Z" fill="#153055"/>
<path d="M13.6675 23.2495C13.4832 23.2493 13.3064 23.1755 13.1762 23.0442L11.0905 20.9452C10.9917 20.8458 10.9249 20.7187 10.8989 20.5805C10.8729 20.4422 10.8889 20.2993 10.9448 20.1704C11.0007 20.0415 11.0939 19.9325 11.2123 19.8577C11.3307 19.7829 11.4688 19.7458 11.6085 19.7511C11.7081 19.7511 11.8078 19.7511 11.9086 19.7511C13.4656 19.7503 14.9857 19.2746 16.2687 18.3869C17.5518 17.4992 18.5374 16.2411 19.0958 14.7784C19.6542 13.3158 19.7592 11.7171 19.3968 10.1932C19.0344 8.6693 18.2218 7.29165 17.0659 6.24182C16.9912 6.18265 16.9293 6.10867 16.884 6.02445C16.8388 5.94023 16.8113 5.84758 16.8031 5.75221C16.7949 5.65685 16.8062 5.5608 16.8363 5.47001C16.8665 5.37923 16.9148 5.29564 16.9784 5.22441C17.0419 5.15319 17.1193 5.09584 17.2058 5.05593C17.2922 5.01601 17.3859 4.99437 17.481 4.99234C17.5761 4.99032 17.6706 5.00795 17.7586 5.04416C17.8467 5.08036 17.9264 5.13436 17.9929 5.20282C19.277 6.36938 20.204 7.88028 20.665 9.5583C21.1261 11.2363 21.1021 13.0119 20.5958 14.6766C20.0896 16.3414 19.1221 17.8264 17.8069 18.9573C16.4917 20.0883 14.8833 20.8184 13.1704 21.0618L14.1553 22.053C14.2525 22.151 14.3186 22.2757 14.3453 22.4114C14.3721 22.5472 14.3582 22.6879 14.3055 22.8157C14.2528 22.9435 14.1636 23.0527 14.0492 23.1295C13.9348 23.2063 13.8004 23.2472 13.6628 23.2471L13.6675 23.2495Z" fill="#153055"/>
</g>
<defs>
<clipPath id="clip0_905_5424">
<rect width="22.5" height="22.5" fill="white" transform="translate(0.654297 0.75)"/>
</clipPath>
</defs>
</svg>
